<svg width="284" height="284" viewBox="0 0 284 284" fill="none" xmlns="http://www.w3.org/2000/svg">
<path d="M142 255.6C204.74 255.6 255.6 204.74 255.6 142C255.6 79.2605 204.74 28.4 142 28.4C79.2605 28.4 28.4 79.2605 28.4 142C28.4 204.74 79.2605 255.6 142 255.6Z" fill="#0239C4"/>
<path d="M142 255.6C204.74 255.6 255.6 204.74 255.6 142C255.6 79.2605 204.74 28.4 142 28.4C79.2605 28.4 28.4 79.2605 28.4 142C28.4 204.74 79.2605 255.6 142 255.6Z" fill="#0239C4"/>
<path d="M192.214 156.578C192.109 156.484 191.99 156.416 191.879 156.328L191.842 99.738V79.3695C191.842 78.5655 191.667 77.7712 191.328 77.042C190.99 76.3127 190.497 75.6661 189.882 75.1472C189.268 74.6283 188.548 74.2496 187.773 74.0376C186.997 73.8256 186.185 73.7853 185.392 73.9195L110.343 86.6172C109.055 86.8352 107.886 87.5021 107.043 88.4996C106.199 89.4972 105.737 90.761 105.736 92.0671V173.109C102.374 174.839 99.0308 177.406 96.0914 180.74C87.6765 190.286 85.7482 202.336 91.7832 207.655C97.8182 212.974 109.53 209.549 117.945 200.004C126.36 190.459 128.289 178.409 122.254 173.089C122.148 172.996 122.029 172.928 121.918 172.84V113.512L175.691 104.415V156.598C172.328 158.327 168.986 160.895 166.046 164.229C157.631 173.774 155.703 185.824 161.738 191.143C167.773 196.463 179.485 193.038 187.9 183.492C196.321 173.95 198.249 161.897 192.214 156.578Z" fill="white"/>
</svg>
